#N canvas 269 26 1440 852 10;
#X declare -lib oscx;
#N canvas 363 55 637 577 read_osc 0;
#X obj 275 370 sendOSC;
#X obj 308 222 spigot 1;
#X obj 247 108 t a b;
#X msg 329 330 disconnect;
#X obj 311 247 t b b;
#X msg 377 220 0;
#X msg 164 274 send /awk_id \$1;
#X obj 165 250 tosymbol;
#X obj 54 259 outlet;
#X msg 314 307 connect 127.0.0.1 9000;
#X obj 164 172 OSCroute /message_id;
#X obj 218 33 dumpOSC 9090;
#X obj 30 53 import oscx;
#X connect 1 0 4 0;
#X connect 2 0 10 0;
#X connect 2 1 1 0;
#X connect 3 0 0 0;
#X connect 4 0 5 0;
#X connect 4 1 9 0;
#X connect 5 0 1 1;
#X connect 6 0 0 0;
#X connect 7 0 6 0;
#X connect 9 0 0 0;
#X connect 10 0 7 0;
#X connect 10 1 8 0;
#X connect 11 0 2 0;
#X restore 501 50 pd read_osc;
#X obj 1043 731 s \$0-c_major_scale;
#X obj 500 579 tabread~ \$0-c_major_scale;
#X obj 500 604 mtof~;
#X obj 500 628 osc~;
#X obj 501 774 dac~;
#X obj 1113 642 table \$0-c_major_scale 22;
#X msg 1043 677 0 60 62 64 65 67 69 71 72 74 76 77 79 81 83 84 86 88
89 91 93 95 96;
#X obj 500 557 *~ 22;
#X obj 602 671 delwrite~ \$0-del 1000;
#X obj 595 728 delread~ \$0-del 666;
#X obj 507 740 +~;
#X obj 572 792 *~ 0.2;
#X obj 501 78 OSCroute /rate /delay /filter /pattern;
#X obj 501 130 clip 0 1;
#X obj 557 253 unpack f f;
#X obj 614 280 s \$0-delay_feedback;
#X obj 557 303 s \$0-delay_time;
#X obj 613 145 unpack f f;
#X obj 670 172 s \$0-filter_q;
#X obj 613 195 s \$0-filter_cutoff;
#X obj 627 766 r \$0-delay_feedback;
#X obj 627 799 clip 0 1;
#X obj 775 660 r \$0-delay_time;
#X obj 775 683 clip 0 1;
#X obj 775 711 * 1000;
#X obj 507 668 bp~;
#X obj 731 587 r \$0-filter_cutoff;
#X obj 731 607 clip 0 1;
#X obj 893 607 clip 0 1;
#X obj 893 587 r \$0-filter_q;
#X obj 893 631 * 30;
#X obj 731 633 * 10000;
#X obj 1043 643 loadbang;
#N canvas 203 187 1052 620 index_scanner 0;
#X obj 219 319 osc~;
#X obj 219 353 +~ 1;
#X obj 219 385 *~ 0.5;
#X obj 277 317 phasor~;
#X obj 359 365 *~ -1;
#X obj 359 387 +~ 1;
#X obj 474 313 noise~;
#X obj 474 343 +~ 1;
#X obj 474 370 *~ 0.5;
#X obj 474 397 samphold~;
#X obj 578 317 phasor~;
#X obj 578 291 * 10;
#X obj 218 482 *~ 1;
#X obj 359 487 *~ 0;
#X obj 280 534 +~;
#X obj 277 487 *~ 0;
#X obj 476 498 *~ 0;
#X msg 682 389 0;
#X obj 219 233 inlet;
#X obj 769 380 sel up down up_and_down random;
#X msg 769 412 1;
#X msg 813 412 1;
#X msg 857 412 1;
#X msg 901 412 1;
#X obj 654 153 t a b;
#X obj 280 569 outlet~;
#X obj 654 111 inlet;
#X connect 0 0 1 0;
#X connect 1 0 2 0;
#X connect 2 0 12 0;
#X connect 3 0 4 0;
#X connect 3 0 15 0;
#X connect 4 0 5 0;
#X connect 5 0 13 0;
#X connect 6 0 7 0;
#X connect 7 0 8 0;
#X connect 8 0 9 0;
#X connect 9 0 16 0;
#X connect 10 0 9 1;
#X connect 11 0 10 0;
#X connect 12 0 14 0;
#X connect 13 0 14 1;
#X connect 14 0 25 0;
#X connect 15 0 14 0;
#X connect 16 0 14 1;
#X connect 17 0 12 1;
#X connect 17 0 15 1;
#X connect 17 0 13 1;
#X connect 17 0 16 1;
#X connect 18 0 0 0;
#X connect 18 0 3 0;
#X connect 18 0 11 0;
#X connect 19 0 20 0;
#X connect 19 1 21 0;
#X connect 19 2 22 0;
#X connect 19 3 23 0;
#X connect 20 0 15 1;
#X connect 21 0 13 1;
#X connect 22 0 12 1;
#X connect 23 0 16 1;
#X connect 24 0 19 0;
#X connect 24 1 17 0;
#X connect 26 0 24 0;
#X restore 501 513 pd index_scanner;
#X obj 625 824 * 0.8;
#X obj 629 486 tosymbol;
#X connect 0 0 13 0;
#X connect 2 0 3 0;
#X connect 3 0 4 0;
#X connect 4 0 26 0;
#X connect 7 0 1 0;
#X connect 8 0 2 0;
#X connect 10 0 11 1;
#X connect 11 0 5 0;
#X connect 11 0 5 1;
#X connect 11 0 12 0;
#X connect 12 0 9 0;
#X connect 13 0 14 0;
#X connect 13 1 15 0;
#X connect 13 2 18 0;
#X connect 13 3 36 0;
#X connect 14 0 34 0;
#X connect 15 0 17 0;
#X connect 15 1 16 0;
#X connect 18 0 20 0;
#X connect 18 1 19 0;
#X connect 21 0 22 0;
#X connect 22 0 35 0;
#X connect 23 0 24 0;
#X connect 24 0 25 0;
#X connect 25 0 10 0;
#X connect 26 0 11 0;
#X connect 26 0 9 0;
#X connect 27 0 28 0;
#X connect 28 0 32 0;
#X connect 29 0 31 0;
#X connect 30 0 29 0;
#X connect 31 0 26 2;
#X connect 32 0 26 1;
#X connect 33 0 7 0;
#X connect 34 0 8 0;
#X connect 35 0 12 1;
#X connect 36 0 34 1;
